<svg width="90" height="90" viewBox="0 0 90 90" fill="none" xmlns="http://www.w3.org/2000/svg">
<path fill-rule="evenodd" clip-rule="evenodd" d="M41.144 41.1938C40.6118 43.3891 39.4143 45.5179 37.6847 47.4471C34.8241 50.6404 33.3606 59.8208 33.3606 63.8788V65.4089H48.9274H51.921H67.4879V63.8788C67.4879 59.8208 66.0243 50.6404 63.1638 47.4471C61.4341 45.5179 60.2367 43.3891 59.7045 41.1938C57.5674 32.5844 60.8105 22.5178 61.3577 20.819L61.3578 20.8188C61.4068 20.6669 61.4341 20.582 61.4341 20.571L61.9663 19.174L59.1723 18.1096L58.6401 19.5066C58.4405 19.9723 54.2494 31.6142 56.7774 41.9256C57.4426 44.6531 58.8396 47.181 60.9019 49.4429C62.6981 51.4387 64.1616 58.0246 64.4277 62.3488H51.921H48.9274H36.4207C36.6868 58.0246 38.1504 51.4387 39.9465 49.4429C42.0088 47.1145 43.4058 44.5866 44.0711 41.9256C46.6656 31.6807 42.408 20.0388 42.2084 19.5066L41.6762 18.1096L38.8821 19.174L39.4143 20.571C39.4809 20.7041 43.5389 31.8138 41.144 41.1938ZM29.7686 47.4473L38.6164 40.5287L32.1635 35.4727L34.9575 32.6787L32.8287 30.5499L29.7686 33.61L29.702 33.5435C28.172 32.3461 26.3093 31.6808 24.3135 31.6808C19.4572 31.6808 15.5322 35.6058 15.5322 40.4621C15.5322 42.5244 16.264 44.3871 17.3949 45.8507L15 48.3786L17.1288 50.5074L19.6568 47.9795C20.9873 48.8443 22.5839 49.31 24.3135 49.31C26.3093 49.31 28.172 48.6447 29.7686 47.4473ZM18.5258 40.5287C18.5258 37.3354 21.1203 34.741 24.3135 34.741C25.511 34.741 26.6419 35.0736 27.5732 35.7388L19.5902 43.7884C18.925 42.857 18.5258 41.7261 18.5258 40.5287ZM30.0347 37.6015L33.7601 40.5287L27.9724 45.0524L28.5046 45.7841L27.9059 45.1189L28.4381 45.7841L27.8393 45.1854C26.8415 45.9837 25.5775 46.3829 24.3135 46.3829C23.4487 46.3829 22.5839 46.1833 21.8521 45.8507L30.0347 37.6015ZM72.5439 66.8724V54.2327H75.5375V66.8724C75.5375 69.7995 73.2091 72.1279 70.282 72.1279H30.6331C27.706 72.1279 25.3776 69.7995 25.3776 66.8724V54.9644H28.3712V66.8724C28.3712 68.1364 29.3691 69.1343 30.6331 69.1343H70.282C71.546 69.1343 72.5439 68.1364 72.5439 66.8724Z" fill="white"/>
</svg>
