<svg width="90" height="90" viewBox="0 0 90 90" fill="none" xmlns="http://www.w3.org/2000/svg">
<path fill-rule="evenodd" clip-rule="evenodd" d="M75.9635 42.8008L75.8202 41.1508C75.8202 41.0074 75.8023 40.8818 75.7843 40.7563C75.7664 40.6307 75.7485 40.5052 75.7485 40.3617C75.7485 40.2541 75.7306 40.1466 75.7127 40.039L75.7127 40.0389L75.7127 40.0388C75.6947 39.9313 75.6768 39.8237 75.6768 39.7161V39.5009L75.4618 37.9944H75.3901C75.1034 36.5597 74.6734 35.1967 74.2433 33.8337H74.315L73.6699 32.3272C73.5624 32.112 73.4728 31.8968 73.3832 31.6816C73.2936 31.4664 73.204 31.2512 73.0965 31.0359V30.9642L72.3797 29.5295H72.308C71.5913 28.2382 70.8028 27.0904 69.9427 25.9426L70.0144 25.8709L69.0109 24.6514C68.8317 24.472 68.6705 24.2748 68.5092 24.0775C68.3479 23.8802 68.1866 23.6829 68.0075 23.5036L66.9323 22.3558L66.8606 22.4275C65.8572 21.4232 64.7103 20.4907 63.5635 19.6298V19.5581L62.2017 18.6972C61.9866 18.5537 61.7716 18.4282 61.5566 18.3027C61.3415 18.1771 61.1265 18.0516 60.9115 17.9081L59.478 17.119V17.1908C58.1878 16.5451 56.8976 15.9712 55.4641 15.5408V15.4691L53.8872 15.0387L53.8871 15.0386C53.6721 14.9669 53.4571 14.8952 53.3138 14.8952L52.4537 14.68L50.8768 14.3213V14.393C49.4433 14.1778 48.0814 14.0343 46.5762 13.9626V13.8909H45.286H44.1392V13.9626H44.139C43.9241 13.9626 43.7091 13.9626 43.4941 14.0343L41.8456 14.1778L42.0606 17.406L43.6375 17.2625C43.8525 17.2625 44.0854 17.2446 44.3184 17.2266C44.5513 17.2087 44.7843 17.1908 44.9993 17.1908H45.286H45.3577H45.7161C47.938 17.1908 50.0167 17.4777 52.0953 17.9799C52.3103 18.0516 52.597 18.1233 52.812 18.1233C62.9901 20.8493 70.8028 29.4577 72.4514 40.003V40.1465V40.3617C72.6664 41.653 72.7381 42.9442 72.7381 44.2355C72.7381 45.8137 72.5947 47.3919 72.308 48.8984C72.308 48.9701 72.308 49.0419 72.2364 49.1136C71.8063 51.6961 70.9462 54.1352 69.7277 56.5025V56.5742L69.656 56.7177L69.656 56.7178C69.5843 56.8612 69.5126 57.0047 69.3693 57.2199L68.5809 58.6546L71.4479 60.1611L71.8063 59.4437L72.5231 58.009C72.5231 57.9731 72.541 57.9552 72.5589 57.9372C72.5768 57.9193 72.5947 57.9014 72.5947 57.8655L72.5948 57.8654C72.6664 57.722 72.7381 57.5785 72.8098 57.3633L72.8814 57.1481L73.4549 55.8569H73.3832C73.9566 54.4939 74.3867 53.1309 74.745 51.7679H74.8167L75.0317 50.8353V50.7636L75.1751 50.1897C75.208 50.091 75.2258 49.9923 75.2423 49.9005C75.2618 49.7921 75.2796 49.6934 75.3184 49.6158C75.3573 49.4993 75.375 49.3827 75.3946 49.2548C75.4111 49.1465 75.4289 49.03 75.4618 48.8984C75.4618 48.8267 75.4797 48.7549 75.4976 48.6832C75.5156 48.6114 75.5335 48.5397 75.5335 48.468L75.7485 47.105H75.6768C75.7485 46.1724 75.8202 45.2398 75.8202 44.2355C76.0352 43.8051 76.0352 43.3029 75.9635 42.8008ZM36.4698 18.8047C36.2548 18.8944 36.0398 18.9841 35.8247 19.0558L34.3195 19.558L33.1727 16.545L34.6779 15.9711C34.9288 15.8994 35.1617 15.8097 35.3947 15.7201C35.6276 15.6304 35.8606 15.5407 36.1114 15.469L37.6166 14.9668L38.6201 18.0515L37.1149 18.5537C36.8999 18.6254 36.6848 18.7151 36.4698 18.8047ZM28.0838 19.7017C27.6538 19.9887 27.2954 20.2756 26.8653 20.6343L25.5751 21.6386L27.5821 24.1494L28.8723 23.1451L28.8723 23.145C29.2307 22.8581 29.589 22.5711 29.9474 22.3559L31.2376 21.3516L29.374 18.6974L28.0838 19.7017ZM19.9128 52.3416C19.7694 51.9112 19.6261 51.4808 19.5544 51.0504L19.1244 49.4722L16.0423 50.2612L16.4723 51.8395C16.6157 52.3416 16.759 52.8438 16.9024 53.2742L17.4041 54.7807L20.4862 53.8481L19.9128 52.3416ZM22.7079 58.5112L21.8478 57.1482L19.1241 58.8698L19.9842 60.2329L19.9843 60.2329C20.271 60.6633 20.5577 61.0937 20.7727 61.5241L21.7045 62.8154L24.3565 61.0219L23.4247 59.659C23.2901 59.3895 23.1273 59.1481 22.9717 58.9172L22.9717 58.9172L22.9716 58.9172C22.8787 58.7793 22.7883 58.6452 22.7079 58.5112ZM26.7221 63.6047L27.9406 64.6807C28.0759 64.8162 28.2273 64.9517 28.3871 65.0947C28.5657 65.2547 28.7549 65.424 28.944 65.6133L30.2342 66.6176L28.2273 69.1284L26.9371 68.1241C26.7579 67.9448 26.5608 67.7834 26.3637 67.6219L26.3636 67.6219C26.1665 67.4605 25.9694 67.2991 25.7903 67.1198L24.5718 66.0437L26.7221 63.6047ZM19.9126 36.3446L20.3426 35.0533L20.9161 33.5469L17.9057 32.4708L17.3322 33.9773C17.2606 34.2284 17.171 34.4615 17.0814 34.6946L17.0814 34.6947L17.0814 34.6947C16.9918 34.9278 16.9022 35.1609 16.8305 35.412L16.3288 36.9902L19.4109 37.9228L19.9126 36.3446ZM18.7659 42.9441C18.6942 43.3745 18.6942 43.8767 18.6942 44.3071V46.0288H15.4688V44.3071C15.4688 44.056 15.4867 43.8049 15.5046 43.5539C15.5225 43.3028 15.5404 43.0517 15.5404 42.8006L15.6121 41.1507L18.8375 41.2941L18.7659 42.9441ZM23.4248 29.0276C23.6398 28.6689 23.9265 28.3102 24.2132 27.9515L25.2167 26.6603L22.6363 24.7234L21.6329 26.0146C21.4896 26.2298 21.3462 26.427 21.2029 26.6242L21.2029 26.6243L21.2029 26.6243L21.2029 26.6243L21.2029 26.6243L21.2029 26.6243L21.2028 26.6244L21.2028 26.6244C21.0595 26.8217 20.9161 27.019 20.7728 27.2342L19.841 28.5254L22.493 30.3188L23.4248 29.0276ZM33.1727 68.3391L34.6779 68.9847C34.9897 69.1408 35.3016 69.2591 35.5861 69.3671C35.6939 69.408 35.7979 69.4475 35.8964 69.4869L37.4016 70.0608L36.2548 73.0737L34.7495 72.4998C34.3195 72.3564 33.8178 72.1412 33.3877 71.9259L31.8825 71.2803L33.1727 68.3391ZM51.2355 70.8497L51.2354 70.8497L51.2354 70.8497L51.2353 70.8497L51.2353 70.8498C51.0203 70.9035 50.8053 70.9573 50.5903 70.9932L49.0134 71.2801L49.5869 74.4366L51.1637 74.1496C51.4146 74.1138 51.6655 74.06 51.9163 74.0062C52.1672 73.9524 52.4181 73.8986 52.6689 73.8627L54.2458 73.504L53.5291 70.3475L51.8805 70.7062C51.6655 70.7421 51.4505 70.7959 51.2355 70.8497ZM65.0074 63.323C65.2222 63.1241 65.4486 62.9145 65.6423 62.6723L66.7174 61.4528L69.0827 63.6766L68.0076 64.8244L66.9324 65.9004L65.7856 67.0482L63.5636 64.7526L64.7105 63.6048C64.8035 63.5117 64.9041 63.4186 65.0074 63.323ZM59.335 67.6931C59.1199 67.8007 58.9228 67.9083 58.7257 68.016C58.5286 68.1236 58.3315 68.2312 58.1165 68.3388L56.6829 69.0561L58.1881 71.9256L59.6217 71.2082C59.8367 71.1006 60.0517 70.9751 60.2667 70.8496C60.4818 70.724 60.6968 70.5985 60.9118 70.4909L62.2737 69.7018L60.6251 66.904L59.335 67.6931ZM40.9141 70.9216L42.491 71.1368L42.4911 71.1368C42.9211 71.2086 43.3511 71.2803 43.8528 71.2803L45.4297 71.4237L45.2147 74.652L43.6378 74.5085C43.3869 74.4727 43.136 74.4547 42.8852 74.4368C42.6343 74.4188 42.3834 74.4009 42.1326 74.365L40.5557 74.1498L40.9141 70.9216ZM58.6179 41.8683L42.2757 59.3721C41.989 59.7308 41.5589 59.8743 41.0572 59.8743C40.8421 59.8743 40.5554 59.8025 40.2687 59.6591C39.6236 59.3004 39.3369 58.5113 39.552 57.7939L42.3473 49.4007H34.1045C33.4595 49.4007 32.886 48.9703 32.5993 48.3964C32.3126 47.8225 32.456 47.1769 32.886 46.6747L49.2283 29.1709C49.73 28.597 50.5901 28.5253 51.2352 28.884C51.8803 29.2427 52.167 30.0318 51.952 30.7492L49.1566 39.1423H57.3994C58.0445 39.1423 58.6179 39.5728 58.9046 40.1467C59.1913 40.7206 59.0479 41.3662 58.6179 41.8683ZM46.5762 36.8468L37.8317 46.1726H44.5693C45.071 46.1726 45.5728 46.3878 45.8595 46.8182C46.1462 47.1769 46.2179 47.7508 46.0745 48.2529L44.9277 51.6963L53.6722 42.3705H46.9346C46.4329 42.3705 45.9312 42.1553 45.6444 41.7249C45.3577 41.2944 45.2861 40.7923 45.4294 40.2901L46.5762 36.8468Z" fill="white"/>
</svg>
