<svg width="68" height="29" viewBox="0 0 68 29" fill="none" xmlns="http://www.w3.org/2000/svg">
<g clip-path="url(#clip0_4_127)">
<path d="M8.78051 17.4703V17.4553C9.56059 16.9017 10.8065 15.9552 10.8065 12.9101C10.8065 8.97829 8.76942 7.19385 6.01142 7.19385H0V28.7942H5.98184C9.37204 28.7942 11.0246 26.2616 11.0246 22.4907C11.0246 18.9779 9.65672 18.009 8.78051 17.4703ZM3.53439 10.5308H5.45316C6.44397 10.5308 7.24624 11.264 7.24624 13.2841C7.24624 15.3267 6.32197 16.0338 5.45316 16.0338H3.53439V10.5308ZM5.50122 25.4648H3.53439V19.3707H5.50122C6.84695 19.3707 7.47176 20.3808 7.47176 22.1914C7.47176 24.6754 6.72495 25.4648 5.50122 25.4648Z" fill="white"/>
<path d="M24.7334 21.5702C24.7334 18.8805 23.9015 18.1211 22.7739 17.4739V17.4589C23.554 16.9053 24.7888 15.9588 24.7888 12.9136C24.7888 8.98187 22.7591 7.20117 20.0048 7.20117H13.9934V28.8015H17.5241L17.5278 19.378C17.5278 19.378 18.489 19.378 19.4466 19.378C20.4522 19.378 21.1694 20.2198 21.1694 22.1276V28.8015H24.7334V21.5702ZM17.5278 10.5306H19.4466C20.4374 10.5306 21.2359 11.2639 21.2359 13.284C21.2359 15.3266 20.3117 16.0336 19.4466 16.0336H17.5278V10.5306Z" fill="white"/>
<path d="M33.9241 0C32.4305 0 28.0939 0.340428 28.0939 4.70988V28.8017H31.6283V19.3745H36.2163V28.798H39.7544V4.70988C39.7544 0.332946 35.414 0 33.9241 0ZM31.6246 5.24484C31.6246 3.62126 33.1071 3.41176 33.9241 3.41176C34.7412 3.41176 36.2163 3.61752 36.2163 5.24484V16.0301H31.6209L31.6246 5.24484Z" fill="white"/>
<path d="M50.3428 7.19385V24.1965C50.3428 25.0607 49.6329 25.6406 48.5756 25.6406C47.5145 25.6406 46.8158 25.0607 46.8158 24.1965V7.19385L43.2814 7.19759V24.7652C43.2814 28.1096 46.6975 28.9999 48.5793 28.9999C50.4463 28.9999 53.8734 28.1059 53.8734 24.7614V7.19385H50.3428Z" fill="white"/>
<path d="M64.4693 28.7942V11.799C64.4693 10.9348 63.7595 10.355 62.7058 10.355C61.6448 10.355 60.946 10.9348 60.946 11.799L60.9423 28.7942L57.408 28.798V11.2304C57.408 7.88596 60.824 6.99561 62.7058 6.99561C64.5729 6.99561 68 7.8897 68 11.2341V28.7942H64.4693Z" fill="white"/>
</g>
<defs>
<clipPath id="clip0_4_127">
<rect width="68" height="29" fill="white"/>
</clipPath>
</defs>
</svg>
